<svg width="272" height="42" viewBox="0 0 272 42" fill="none" xmlns="http://www.w3.org/2000/svg">
<path d="M61.7423 27.6996C61.9429 27.6996 62.1055 27.5388 62.1055 27.3404V22.5525C62.1055 22.3541 61.9429 22.1934 61.7423 22.1934H61.3573C61.1568 22.1934 60.9941 22.3541 60.9941 22.5525V27.3404C60.9941 27.5388 61.1568 27.6996 61.3573 27.6996H61.7423Z" fill="#F2F2F2" fill-opacity="0.5"/>
<path d="M69.1309 27.6996C69.3315 27.6996 69.494 27.5388 69.494 27.3404V22.5525C69.494 22.3541 69.3315 22.1934 69.1309 22.1934H68.7618C68.5612 22.1934 68.3986 22.3541 68.3986 22.5525V25.8357L66.2708 22.5263C66.1375 22.3189 65.9063 22.1934 65.6579 22.1934H65.0546C64.854 22.1934 64.6914 22.3541 64.6914 22.5525V27.3404C64.6914 27.5388 64.854 27.6996 65.0546 27.6996H65.4238C65.6243 27.6996 65.7869 27.5388 65.7869 27.3404V23.7932L68.2357 27.5356C68.3026 27.6379 68.4174 27.6996 68.5405 27.6996H69.1309Z" fill="#F2F2F2" fill-opacity="0.5"/>
<path d="M75.8493 23.2107C76.0499 23.2107 76.2125 23.0499 76.2125 22.8515V22.5525C76.2125 22.3541 76.0499 22.1934 75.8493 22.1934H71.9159C71.7153 22.1934 71.5527 22.3541 71.5527 22.5525V22.8515C71.5527 23.0499 71.7153 23.2107 71.9159 23.2107H73.3309V27.3404C73.3309 27.5388 73.4935 27.6996 73.6941 27.6996H74.0712C74.2717 27.6996 74.4343 27.5388 74.4343 27.3404V23.2107H75.8493Z" fill="#F2F2F2" fill-opacity="0.5"/>
<path d="M81.4316 27.6996C81.6328 27.6996 81.7947 27.5388 81.7947 27.3404V27.0491C81.7947 26.8508 81.6328 26.69 81.4316 26.69H79.366V25.4163H81.2017C81.4025 25.4163 81.5652 25.2555 81.5652 25.0571V24.8202C81.5652 24.6219 81.4025 24.4611 81.2017 24.4611H79.366V23.203H81.4316C81.6328 23.203 81.7947 23.0421 81.7947 22.8438V22.5525C81.7947 22.3541 81.6328 22.1934 81.4316 22.1934H78.6337C78.4331 22.1934 78.2705 22.3541 78.2705 22.5525V27.3404C78.2705 27.5388 78.4331 27.6996 78.6337 27.6996H81.4316Z" fill="#F2F2F2" fill-opacity="0.5"/>
<path d="M86.8149 27.5048C86.8766 27.6244 87.0016 27.6996 87.1374 27.6996H87.5347C87.8085 27.6996 87.9843 27.4114 87.8557 27.1722L86.9318 25.4474C87.6698 25.2377 88.1303 24.6552 88.1303 23.8864C88.1303 22.9311 87.4323 22.1934 86.3363 22.1934H84.5009C84.3004 22.1934 84.1377 22.3541 84.1377 22.5525V27.3404C84.1377 27.5388 84.3004 27.6996 84.5009 27.6996H84.8778C85.0783 27.6996 85.241 27.5388 85.241 27.3404V25.5794H85.8126L86.8149 27.5048ZM85.241 24.6552V23.1253H86.13C86.6856 23.1253 87.011 23.4282 87.011 23.8941C87.011 24.3446 86.6856 24.6552 86.13 24.6552H85.241Z" fill="#F2F2F2" fill-opacity="0.5"/>
<path d="M94.8475 27.6996C95.0479 27.6996 95.2106 27.5388 95.2106 27.3404V22.5525C95.2106 22.3541 95.0479 22.1934 94.8475 22.1934H94.4785C94.278 22.1934 94.1153 22.3541 94.1153 22.5525V25.8357L91.9872 22.5263C91.8543 22.3189 91.6233 22.1934 91.3749 22.1934H90.7714C90.5709 22.1934 90.4082 22.3541 90.4082 22.5525V27.3404C90.4082 27.5388 90.5709 27.6996 90.7714 27.6996H91.1403C91.3408 27.6996 91.5035 27.5388 91.5035 27.3404V23.7932L93.9526 27.5356C94.0195 27.6379 94.1342 27.6996 94.257 27.6996H94.8475Z" fill="#F2F2F2" fill-opacity="0.5"/>
<path d="M100.963 27.6996C101.163 27.6996 101.326 27.5388 101.326 27.3404V27.0491C101.326 26.8508 101.163 26.69 100.963 26.69H98.897V25.4163H100.732C100.933 25.4163 101.096 25.2555 101.096 25.0571V24.8202C101.096 24.6219 100.933 24.4611 100.732 24.4611H98.897V23.203H100.963C101.163 23.203 101.326 23.0421 101.326 22.8438V22.5525C101.326 22.3541 101.163 22.1934 100.963 22.1934H98.1649C97.9637 22.1934 97.8018 22.3541 97.8018 22.5525V27.3404C97.8018 27.5388 97.9637 27.6996 98.1649 27.6996H100.963Z" fill="#F2F2F2" fill-opacity="0.5"/>
<path d="M107.435 23.2107C107.635 23.2107 107.798 23.0499 107.798 22.8515V22.5525C107.798 22.3541 107.635 22.1934 107.435 22.1934H103.501C103.3 22.1934 103.138 22.3541 103.138 22.5525V22.8515C103.138 23.0499 103.3 23.2107 103.501 23.2107H104.916V27.3404C104.916 27.5388 105.078 27.6996 105.279 27.6996H105.657C105.857 27.6996 106.02 27.5388 106.02 27.3404V23.2107H107.435Z" fill="#F2F2F2" fill-opacity="0.5"/>
<path d="M115.339 27.8174C116.919 27.8174 117.729 26.7922 117.943 25.9457L116.919 25.6428C116.768 26.1554 116.3 26.7689 115.339 26.7689C114.434 26.7689 113.593 26.1243 113.593 24.9516C113.593 23.7013 114.482 23.111 115.323 23.111C116.3 23.111 116.737 23.6935 116.871 24.2216L117.903 23.9032C117.681 23.0101 116.879 22.0781 115.323 22.0781C113.815 22.0781 112.458 23.1965 112.458 24.9516C112.458 26.7068 113.768 27.8174 115.339 27.8174Z" fill="#F2F2F2" fill-opacity="0.5"/>
<path d="M120.862 24.9439C120.862 23.7013 121.752 23.111 122.617 23.111C123.49 23.111 124.379 23.7013 124.379 24.9439C124.379 26.1864 123.49 26.7767 122.617 26.7767C121.752 26.7767 120.862 26.1864 120.862 24.9439ZM119.728 24.9516C119.728 26.7223 121.092 27.8174 122.617 27.8174C124.149 27.8174 125.514 26.7223 125.514 24.9516C125.514 23.1731 124.149 22.0781 122.617 22.0781C121.092 22.0781 119.728 23.1731 119.728 24.9516Z" fill="#F2F2F2" fill-opacity="0.5"/>
<path d="M133.681 27.6996C133.883 27.6996 134.045 27.5388 134.045 27.3404V22.5525C134.045 22.3541 133.883 22.1934 133.681 22.1934H132.796C132.649 22.1934 132.516 22.2813 132.46 22.4161L130.901 26.1696L129.304 22.4133C129.247 22.28 129.115 22.1934 128.969 22.1934H128.129C127.928 22.1934 127.766 22.3541 127.766 22.5525V27.3404C127.766 27.5388 127.928 27.6996 128.129 27.6996H128.451C128.651 27.6996 128.814 27.5388 128.814 27.3404V23.8708L130.34 27.479C130.396 27.6126 130.529 27.6996 130.675 27.6996H131.104C131.25 27.6996 131.383 27.6121 131.439 27.4781L132.965 23.8398V27.3404C132.965 27.5388 133.128 27.6996 133.328 27.6996H133.681Z" fill="#F2F2F2" fill-opacity="0.5"/>
<path d="M137.737 24.7019V23.1253H138.602C139.15 23.1253 139.484 23.4282 139.484 23.9175C139.484 24.3912 139.15 24.7019 138.602 24.7019H137.737ZM138.737 25.626C139.848 25.626 140.587 24.9115 140.587 23.9097C140.587 22.9156 139.848 22.1934 138.737 22.1934H136.997C136.796 22.1934 136.634 22.3541 136.634 22.5525V27.3404C136.634 27.5388 136.796 27.6996 136.997 27.6996H137.366C137.566 27.6996 137.729 27.5388 137.729 27.3404V25.626H138.737Z" fill="#F2F2F2" fill-opacity="0.5"/>
<path d="M144.821 27.8238C146.029 27.8238 146.989 27.1016 146.989 25.7502V22.5525C146.989 22.3541 146.826 22.1934 146.626 22.1934H146.257C146.056 22.1934 145.894 22.3541 145.894 22.5525V25.6726C145.894 26.3948 145.488 26.7754 144.821 26.7754C144.171 26.7754 143.758 26.3948 143.758 25.6726V22.5525C143.758 22.3541 143.595 22.1934 143.395 22.1934H143.025C142.825 22.1934 142.662 22.3541 142.662 22.5525V25.7502C142.662 27.1016 143.623 27.8238 144.821 27.8238Z" fill="#F2F2F2" fill-opacity="0.5"/>
<path d="M153.295 23.2107C153.496 23.2107 153.658 23.0499 153.658 22.8515V22.5525C153.658 22.3541 153.496 22.1934 153.295 22.1934H149.362C149.161 22.1934 148.999 22.3541 148.999 22.5525V22.8515C148.999 23.0499 149.161 23.2107 149.362 23.2107H150.777V27.3404C150.777 27.5388 150.94 27.6996 151.14 27.6996H151.517C151.718 27.6996 151.88 27.5388 151.88 27.3404V23.2107H153.295Z" fill="#F2F2F2" fill-opacity="0.5"/>
<path d="M158.877 27.6996C159.077 27.6996 159.24 27.5388 159.24 27.3404V27.0491C159.24 26.8508 159.077 26.69 158.877 26.69H156.811V25.4163H158.646C158.847 25.4163 159.009 25.2555 159.009 25.0571V24.8202C159.009 24.6219 158.847 24.4611 158.646 24.4611H156.811V23.203H158.877C159.077 23.203 159.24 23.0421 159.24 22.8438V22.5525C159.24 22.3541 159.077 22.1934 158.877 22.1934H156.078C155.878 22.1934 155.715 22.3541 155.715 22.5525V27.3404C155.715 27.5388 155.878 27.6996 156.078 27.6996H158.877Z" fill="#F2F2F2" fill-opacity="0.5"/>
<path d="M164.259 27.5048C164.322 27.6244 164.447 27.6996 164.583 27.6996H164.98C165.254 27.6996 165.429 27.4114 165.301 27.1722L164.377 25.4474C165.115 25.2377 165.576 24.6552 165.576 23.8864C165.576 22.9311 164.877 22.1934 163.782 22.1934H161.583V27.3404C161.583 27.5388 161.745 27.6996 161.946 27.6996H162.323C162.524 27.6996 162.686 27.5388 162.686 27.3404V25.5794H163.258L164.259 27.5048ZM162.686 24.6552V23.1253H163.575C164.131 23.1253 164.456 23.4282 164.456 23.8941C164.456 24.3446 164.131 24.6552 163.575 24.6552H162.686Z" fill="#F2F2F2" fill-opacity="0.5"/>
<path d="M62.402 18.4852V13.3646H61.8108C61.683 13.9177 61.1956 14.3366 60.4766 14.3682V14.7475H61.7469V18.4852H62.402ZM65.4444 18.011C65.0609 18.011 64.7813 17.8688 64.5736 17.6475C64.23 17.2919 64.0862 16.6993 64.0862 15.9249C64.0862 15.1505 64.23 14.5578 64.5736 14.2022C64.7813 13.981 65.0609 13.8387 65.4444 13.8387C65.8279 13.8387 66.1076 13.981 66.3153 14.2022C66.6588 14.5578 66.8026 15.1505 66.8026 15.9249C66.8026 16.6993 66.6588 17.2919 66.3153 17.6475C66.1076 17.8688 65.8279 18.011 65.4444 18.011ZM65.4444 18.5958C66.1475 18.5958 66.6508 18.2876 66.9784 17.8135C67.3379 17.2999 67.4578 16.6203 67.4578 15.9249C67.4578 15.2295 67.3379 14.5499 66.9784 14.0363C66.6508 13.5621 66.1475 13.254 65.4444 13.254C64.7414 13.254 64.238 13.5621 63.9104 14.0363C63.5509 14.5499 63.4311 15.2295 63.4311 15.9249C63.4311 16.6203 63.5509 17.2999 63.9104 17.8135C64.238 18.2876 64.7414 18.5958 65.4444 18.5958ZM70.3364 18.011C69.9529 18.011 69.6733 17.8688 69.4655 17.6475C69.122 17.2919 68.9782 16.6993 68.9782 15.9249C68.9782 15.1505 69.122 14.5578 69.4655 14.2022C69.6733 13.981 69.9529 13.8387 70.3364 13.8387C70.7199 13.8387 70.9995 13.981 71.2073 14.2022C71.5508 14.5578 71.6946 15.1505 71.6946 15.9249C71.6946 16.6993 71.5508 17.2919 71.2073 17.6475C70.9995 17.8688 70.7199 18.011 70.3364 18.011ZM70.3364 18.5958C71.0395 18.5958 71.5428 18.2876 71.8704 17.8135C72.2299 17.2999 72.3498 16.6203 72.3498 15.9249C72.3498 15.2295 72.2299 14.5499 71.8704 14.0363C71.5428 13.5621 71.0395 13.254 70.3364 13.254C69.6333 13.254 69.13 13.5621 68.8024 14.0363C68.4429 14.5499 68.323 15.2295 68.323 15.9249C68.323 16.6203 68.4429 17.2999 68.8024 17.8135C69.13 18.2876 69.6333 18.5958 70.3364 18.5958ZM73.6066 14.5183C73.6066 14.1153 73.9102 13.815 74.2937 13.815C74.6931 13.815 74.9888 14.1153 74.9888 14.5183C74.9888 14.9213 74.6931 15.2216 74.2937 15.2216C73.9102 15.2216 73.6066 14.9213 73.6066 14.5183ZM73.0473 14.5183C73.0473 15.2058 73.6146 15.751 74.2937 15.751C74.9808 15.751 75.556 15.2058 75.556 14.5183C75.556 13.8308 74.9808 13.2856 74.2937 13.2856C73.6146 13.2856 73.0473 13.8308 73.0473 14.5183ZM76.7704 17.2919C76.7704 16.8889 77.074 16.5887 77.4575 16.5887C77.857 16.5887 78.1526 16.8889 78.1526 17.2919C78.1526 17.695 77.857 17.9952 77.4575 17.9952C77.074 17.9952 76.7704 17.695 76.7704 17.2919ZM76.2112 17.2919C76.2112 17.9794 76.7784 18.5247 77.4575 18.5247C78.1446 18.5247 78.7199 17.9794 78.7199 17.2919C78.7199 16.6045 78.1446 16.0592 77.4575 16.0592C76.7784 16.0592 76.2112 16.6045 76.2112 17.2919ZM74.3176 18.4852L78.0487 13.3646H77.4335L73.6865 18.4852H74.3176ZM83.2996 14.5894C82.1971 14.5894 81.3822 15.427 81.3822 16.5887C81.3822 17.7582 82.1971 18.5958 83.2996 18.5958C84.4022 18.5958 85.2171 17.7582 85.2171 16.5887C85.2171 15.427 84.4022 14.5894 83.2996 14.5894ZM83.2996 15.1584C83.9867 15.1584 84.578 15.672 84.578 16.5887C84.578 17.5132 83.9867 18.0268 83.2996 18.0268C82.6126 18.0268 82.0213 17.5132 82.0213 16.5887C82.0213 15.672 82.6126 15.1584 83.2996 15.1584ZM86.8419 16.2568C86.8419 15.6641 87.1854 15.1584 87.8006 15.1584C88.4957 15.1584 88.7514 15.6009 88.7514 16.154V18.4852H89.3906V16.0592C89.3906 15.2374 88.9431 14.5894 88.0243 14.5894C87.521 14.5894 87.0736 14.8265 86.8259 15.269V14.7001H86.2027V18.4852H86.8419V16.2568ZM92.6408 16.4938V15.9407H90.5076V16.4938H92.6408ZM95.4393 15.1584C96.1264 15.1584 96.438 15.6246 96.5419 16.0276L97.1171 15.7826C96.9573 15.1821 96.422 14.5894 95.4393 14.5894C94.3607 14.5894 93.5458 15.4112 93.5458 16.5887C93.5458 17.7424 94.3448 18.5958 95.4473 18.5958C96.43 18.5958 96.9653 17.9794 97.1491 17.4184L96.5898 17.1734C96.478 17.5211 96.1744 18.0268 95.4473 18.0268C94.7682 18.0268 94.185 17.4974 94.185 16.5887C94.185 15.672 94.7682 15.1584 95.4393 15.1584ZM98.7012 16.2252C98.7012 15.6404 99.0528 15.1584 99.66 15.1584C100.355 15.1584 100.611 15.6009 100.611 16.154V18.4852H101.25V16.0592C101.25 15.2374 100.802 14.5894 99.8837 14.5894C99.3883 14.5894 98.9489 14.8107 98.7012 15.2058V12.7719H98.0621V18.4852H98.7012V16.2252ZM102.175 17.4816C102.175 18.0585 102.647 18.5958 103.438 18.5958C104.125 18.5958 104.54 18.2244 104.708 17.9162C104.708 18.2086 104.74 18.3982 104.756 18.4852H105.379C105.355 18.3666 105.331 18.1691 105.331 17.853V15.9407C105.331 15.2058 104.876 14.5894 103.789 14.5894C102.966 14.5894 102.327 15.0794 102.247 15.7984L102.854 15.9407C102.91 15.4587 103.246 15.1268 103.805 15.1268C104.404 15.1268 104.692 15.4508 104.692 15.8775C104.692 16.0434 104.628 16.1619 104.348 16.2015L103.318 16.3516C102.647 16.4464 102.175 16.8178 102.175 17.4816ZM103.517 18.0585C103.078 18.0585 102.814 17.7582 102.814 17.45C102.814 17.0786 103.078 16.8731 103.446 16.8178L104.692 16.6361V16.8889C104.692 17.695 104.181 18.0585 103.517 18.0585ZM107.174 18.4852V14.7001H106.535V18.4852H107.174ZM106.375 13.2065C106.375 13.4673 106.591 13.6807 106.855 13.6807C107.119 13.6807 107.334 13.4673 107.334 13.2065C107.334 12.9458 107.119 12.7324 106.855 12.7324C106.591 12.7324 106.375 12.9458 106.375 13.2065ZM109.062 16.2568C109.062 15.6641 109.406 15.1584 110.021 15.1584C110.716 15.1584 110.972 15.6009 110.972 16.154V18.4852H111.611V16.0592C111.611 15.2374 111.163 14.5894 110.245 14.5894C109.741 14.5894 109.294 14.8265 109.046 15.269V14.7001H108.423V18.4852H109.062V16.2568Z" fill="#F2F2F2" fill-opacity="0.5"/>
<path opacity="0.2" d="M45.054 13.3594C43.2251 13.3594 41.2312 14.2863 39.1239 16.1122C38.1242 16.9774 37.2608 17.9044 36.6133 18.646C36.6133 18.646 36.6133 18.646 36.619 18.6516V18.646C36.619 18.646 37.6414 19.7471 38.7718 20.9269C39.3795 20.2134 40.2543 19.2415 41.2597 18.3651C43.1341 16.7415 44.3554 16.3987 45.054 16.3987C47.6839 16.3987 49.8197 18.4606 49.8197 20.9943C49.8197 23.5112 47.6783 25.573 45.054 25.5899C44.9348 25.5899 44.7814 25.573 44.5882 25.5337C45.3551 25.8596 46.1787 26.0955 46.9626 26.0955C51.7794 26.0955 52.7223 22.9887 52.7848 22.7641C52.9268 22.1966 53.0006 21.6011 53.0006 20.9887C53.0006 16.7864 49.4335 13.3594 45.054 13.3594Z" fill="#F2F2F2"/>
<path opacity="0.2" d="M28.2288 28.6412C30.0578 28.6412 32.0515 27.7142 34.1589 25.8883C35.1586 25.0232 36.022 24.0961 36.6696 23.3546C36.6696 23.3546 36.6696 23.3546 36.6639 23.349V23.3546C36.6639 23.3546 35.6415 22.2534 34.5111 21.0737C33.9033 21.7872 33.0285 22.759 32.0232 23.6355C30.1487 25.2591 28.9275 25.6018 28.2288 25.6018C25.5989 25.5962 23.4632 23.5344 23.4632 21.0006C23.4632 18.4837 25.6045 16.4219 28.2288 16.405C28.3481 16.405 28.5014 16.4219 28.6945 16.4612C27.9277 16.1354 27.1041 15.8994 26.3202 15.8994C21.5035 15.8994 20.5663 19.0062 20.4981 19.2253C20.3561 19.7984 20.2822 20.3883 20.2822 21.0006C20.2822 25.2142 23.8494 28.6412 28.2288 28.6412Z" fill="#F2F2F2"/>
<path opacity="0.4" d="M46.9507 26.0281C44.4855 25.9663 41.9237 24.0449 41.4011 23.5674C40.0493 22.3314 36.9308 18.9887 36.6866 18.7246C34.4031 16.1909 31.3074 13.3594 28.2288 13.3594H28.2231H28.2174C24.4798 13.3762 21.3387 15.8819 20.498 19.2246C20.5605 19.0055 21.7931 15.8369 26.3146 15.9493C28.7798 16.0111 31.3529 17.9606 31.8812 18.4381C33.2331 19.6741 36.3514 23.0169 36.5957 23.2809C38.8791 25.809 41.9748 28.6405 45.0535 28.6405H45.0592H45.0649C48.8024 28.6237 51.9492 26.118 52.7842 22.7752C52.716 22.9944 51.4778 26.1349 46.9507 26.0281Z" fill="#F2F2F2"/>
<path d="M263 1.00001L9.00004 1.00022C4.58177 1.00022 1.00005 4.58194 1.00004 9.00021L1.00001 32.9998C1.00001 37.418 4.58173 40.9998 9.00001 40.9998H263C267.418 40.9998 271 37.418 271 32.9998V9.00001C271 4.58173 267.418 1 263 1.00001Z" stroke="#313233"/>
</svg>
