<svg width="156" height="40" viewBox="0 0 156 40" fill="none" xmlns="http://www.w3.org/2000/svg">
<path d="M26.0465 17.3242H23.2285V0.29198H37.95C43.8288 0.29198 46.7682 2.41695 46.7682 6.66689C46.7682 10.9006 43.8288 13.0175 37.95 13.0175H26.0465V17.3242ZM26.0465 2.84681V10.4626H38.1443C40.1687 10.4626 41.6344 10.1544 42.5413 9.53803C43.4644 8.90541 43.926 7.94836 43.926 6.66689C43.926 5.40164 43.4644 4.4527 42.5413 3.82008C41.6182 3.17123 40.1525 2.84681 38.1443 2.84681H26.0465Z" fill="#5CC172"/>
<path d="M64.9445 0L79.083 15.4993L77.0423 17.5675L64.896 4.03907L52.7253 17.5675L50.6604 15.4993L64.8231 0H64.9445Z" fill="#5CC172"/>
<path d="M88.7982 17.3242H83.4295V14.5017H88.4095C89.0411 14.5017 89.6079 14.4612 90.11 14.38C90.6282 14.2827 91.0736 14.1854 91.4461 14.0881C91.8186 13.9907 92.183 13.8042 92.5393 13.5284C92.9118 13.2365 93.2032 13.0012 93.4138 12.8228C93.6243 12.6444 93.8835 12.32 94.1912 11.8495C94.4989 11.3791 94.7256 11.0223 94.8714 10.779C95.0171 10.5194 95.26 10.0652 95.6001 9.41638C95.9564 8.76753 96.2318 8.27279 96.4261 7.93214C97.495 6.00183 98.1428 4.87445 98.3695 4.55003C99.5842 2.70082 101.058 1.47612 102.791 0.875941C103.892 0.486633 105.163 0.29198 106.605 0.29198H111.828V3.11446H107.018C105.884 3.11446 104.929 3.22801 104.151 3.4551C103.374 3.66598 102.702 4.03906 102.135 4.57436C101.568 5.10966 101.09 5.6774 100.702 6.27758C100.329 6.86154 99.8676 7.66449 99.3169 8.68642C99.1064 9.09195 98.9445 9.40016 98.8311 9.61103C98.6691 9.88679 98.4424 10.3085 98.1509 10.8763C97.8594 11.4278 97.6327 11.8495 97.4707 12.1415C97.3087 12.4335 97.082 12.8228 96.7905 13.3095C96.499 13.7799 96.2237 14.153 95.9645 14.4287C95.7216 14.6882 95.4139 14.9964 95.0414 15.3533C94.6851 15.7102 94.3045 15.9859 93.8997 16.1806C93.4948 16.3752 93.0332 16.578 92.515 16.7889C92.0129 16.9835 91.4461 17.1214 90.8145 17.2025C90.1991 17.2836 89.527 17.3242 88.7982 17.3242Z" fill="#5CC172"/>
<path d="M112.237 17.3242H106.868V14.5017H111.848C112.48 14.5017 113.047 14.4612 113.549 14.38C114.067 14.2827 114.512 14.1854 114.885 14.0881C115.257 13.9907 115.622 13.8042 115.978 13.5284C116.351 13.2365 116.642 13.0012 116.853 12.8228C117.063 12.6444 117.322 12.32 117.63 11.8495C117.938 11.3791 118.164 11.0223 118.31 10.779C118.456 10.5194 118.699 10.0652 119.039 9.41638C119.395 8.76753 119.671 8.27279 119.865 7.93214C120.934 6.00183 121.582 4.87445 121.808 4.55003C123.023 2.70082 124.497 1.47612 126.23 0.875941C127.331 0.486633 128.602 0.29198 130.044 0.29198H135.266V3.11446H130.457C129.323 3.11446 128.367 3.22801 127.59 3.4551C126.813 3.66598 126.14 4.03906 125.574 4.57436C125.007 5.10966 124.529 5.6774 124.14 6.27758C123.768 6.86154 123.306 7.66449 122.756 8.68642C122.545 9.09195 122.383 9.40016 122.27 9.61103C122.108 9.88679 121.881 10.3085 121.59 10.8763C121.298 11.4278 121.071 11.8495 120.909 12.1415C120.747 12.4335 120.521 12.8228 120.229 13.3095C119.938 13.7799 119.662 14.153 119.403 14.4287C119.16 14.6882 118.853 14.9964 118.48 15.3533C118.124 15.7102 117.743 15.9859 117.338 16.1806C116.934 16.3752 116.472 16.578 115.954 16.7889C115.452 16.9835 114.885 17.1214 114.253 17.2025C113.638 17.2836 112.966 17.3242 112.237 17.3242Z" fill="#5CC172"/>
<path d="M1.13505 36.2495H0.649414V31.6482H2.57885C3.03386 31.6482 3.39262 31.7643 3.65513 31.9966C3.91764 32.2288 4.04889 32.5378 4.04889 32.9234C4.04889 33.3178 3.91764 33.6333 3.65513 33.87C3.39262 34.1022 3.03386 34.2183 2.57885 34.2183H1.13505V36.2495ZM1.13505 32.0886V33.7779H2.54603C2.86979 33.7779 3.12136 33.7056 3.30074 33.561C3.48012 33.412 3.56981 33.2039 3.56981 32.9366C3.56981 32.6649 3.48012 32.4567 3.30074 32.3121C3.12574 32.1631 2.87417 32.0886 2.54603 32.0886H1.13505Z" fill="white"/>
<path d="M9.96565 36.2495H9.46033L11.5079 31.6219H11.9607L14.0148 36.2495H13.5029L12.932 34.9808H10.5235L9.96565 36.2495ZM11.731 32.2332L10.6875 34.5536H12.7745L11.731 32.2332Z" fill="white"/>
<path d="M21.5802 36.3283C21.2477 36.3283 20.9283 36.2845 20.622 36.1969C20.3201 36.1049 20.0729 35.9865 19.8804 35.8419V35.2963C20.0642 35.4541 20.3026 35.59 20.5958 35.7039C20.9108 35.8178 21.228 35.8748 21.5474 35.8748C21.9105 35.8748 22.208 35.7959 22.4399 35.6382C22.6718 35.4804 22.7877 35.2701 22.7877 35.0071C22.814 34.7617 22.6871 34.5536 22.4071 34.3827C22.3502 34.3389 22.2583 34.295 22.1314 34.2512L21.8427 34.1526C21.8296 34.1482 21.8033 34.1417 21.7639 34.1329C21.7245 34.1197 21.6808 34.1066 21.6327 34.0935C21.5889 34.0759 21.543 34.0606 21.4949 34.0474C21.2236 33.9686 21.0617 33.9204 21.0092 33.9028C20.8692 33.8546 20.7336 33.7998 20.6023 33.7385C20.4579 33.6684 20.3442 33.5917 20.2611 33.5084C20.0686 33.3069 19.9723 33.0571 19.9723 32.7591C19.9723 32.4129 20.1123 32.1281 20.3923 31.9046C20.6723 31.6811 21.0617 31.5693 21.5605 31.5693C22.1117 31.5693 22.5886 31.6964 22.9912 31.9506V32.4501C22.5361 32.1653 22.0636 32.0229 21.5736 32.0229C21.2192 32.0229 20.9458 32.093 20.7533 32.2332C20.5608 32.3735 20.4645 32.5531 20.4645 32.7722C20.4383 32.9475 20.5367 33.1206 20.7598 33.2915C20.7948 33.3222 20.867 33.3573 20.9764 33.3967L21.1995 33.4821L21.4817 33.561L21.7574 33.6399C21.998 33.7144 22.1489 33.7626 22.2102 33.7845C22.3371 33.8283 22.4705 33.8875 22.6105 33.962C22.7549 34.0365 22.873 34.1197 22.9649 34.2118C23.1793 34.409 23.2865 34.6719 23.2865 35.0006C23.2865 35.4125 23.1202 35.7368 22.7877 35.9734C22.4596 36.21 22.0571 36.3283 21.5802 36.3283Z" fill="white"/>
<path d="M31.0618 36.3283C30.7293 36.3283 30.4099 36.2845 30.1037 36.1969C29.8018 36.1049 29.5546 35.9865 29.3621 35.8419V35.2963C29.5458 35.4541 29.7843 35.59 30.0774 35.7039C30.3924 35.8178 30.7096 35.8748 31.029 35.8748C31.3921 35.8748 31.6896 35.7959 31.9215 35.6382C32.1534 35.4804 32.2693 35.2701 32.2693 35.0071C32.2956 34.7617 32.1687 34.5536 31.8887 34.3827C31.8318 34.3389 31.74 34.295 31.6131 34.2512L31.3243 34.1526C31.3112 34.1482 31.2849 34.1417 31.2456 34.1329C31.2062 34.1197 31.1624 34.1066 31.1143 34.0935C31.0706 34.0759 31.0246 34.0606 30.9765 34.0474C30.7052 33.9686 30.5434 33.9204 30.4909 33.9028C30.3509 33.8546 30.2152 33.7998 30.084 33.7385C29.9396 33.6684 29.8258 33.5917 29.7427 33.5084C29.5502 33.3069 29.4539 33.0571 29.4539 32.7591C29.4539 32.4129 29.594 32.1281 29.874 31.9046C30.154 31.6811 30.5434 31.5693 31.0421 31.5693C31.5934 31.5693 32.0703 31.6964 32.4728 31.9506V32.4501C32.0178 32.1653 31.5453 32.0229 31.0552 32.0229C30.7009 32.0229 30.4274 32.093 30.2349 32.2332C30.0424 32.3735 29.9462 32.5531 29.9462 32.7722C29.9199 32.9475 30.0183 33.1206 30.2415 33.2915C30.2765 33.3222 30.3487 33.3573 30.458 33.3967L30.6812 33.4821L30.9634 33.561L31.239 33.6399C31.4796 33.7144 31.6306 33.7626 31.6918 33.7845C31.8187 33.8283 31.9521 33.8875 32.0922 33.962C32.2365 34.0365 32.3547 34.1197 32.4465 34.2118C32.6609 34.409 32.7681 34.6719 32.7681 35.0006C32.7681 35.4125 32.6019 35.7368 32.2693 35.9734C31.9412 36.21 31.5387 36.3283 31.0618 36.3283Z" fill="white"/>
<path d="M40.7353 36.2758H40.3087L38.7206 31.6482H39.2587L40.5384 35.4804L41.7263 31.6285H42.12L43.3144 35.4804L44.5876 31.6482H45.1126L43.531 36.2758H43.1044L41.9232 32.4764L40.7353 36.2758Z" fill="white"/>
<path d="M51.587 32.253C52.0289 31.7972 52.5802 31.5693 53.2408 31.5693C53.8971 31.5693 54.4462 31.7972 54.8881 32.253C55.3299 32.7087 55.5509 33.274 55.5509 33.9488C55.5509 34.6281 55.3299 35.1956 54.8881 35.6513C54.4505 36.1027 53.9015 36.3283 53.2408 36.3283C52.5758 36.3283 52.0245 36.1027 51.587 35.6513C51.1495 35.1999 50.9307 34.6325 50.9307 33.9488C50.9307 33.2696 51.1495 32.7043 51.587 32.253ZM51.948 35.3226C52.2936 35.6907 52.7245 35.8748 53.2408 35.8748C53.7571 35.8748 54.188 35.6907 54.5337 35.3226C54.8837 34.9502 55.0587 34.4922 55.0587 33.9488C55.0587 33.4055 54.8837 32.9475 54.5337 32.575C54.188 32.2069 53.7571 32.0229 53.2408 32.0229C52.7245 32.0229 52.2936 32.2069 51.948 32.575C51.5979 32.9475 51.4229 33.4055 51.4229 33.9488C51.4229 34.4922 51.5979 34.9502 51.948 35.3226Z" fill="white"/>
<path d="M62.5111 36.2495H62.0255V31.6482H64.0796C64.5259 31.6482 64.8781 31.7622 65.1362 31.99C65.3987 32.2135 65.53 32.5159 65.53 32.8971C65.53 33.2258 65.4337 33.4997 65.2412 33.7188C65.0531 33.9379 64.7884 34.0759 64.4471 34.1329L65.9303 36.2495H65.3593L63.9155 34.1789H62.5111V36.2495ZM62.5111 32.0886V33.7385H64.0533C64.3684 33.7385 64.6112 33.6684 64.7818 33.5282C64.9568 33.3835 65.0443 33.1798 65.0443 32.9168C65.0443 32.6539 64.9568 32.4501 64.7818 32.3055C64.6068 32.1609 64.364 32.0886 64.0533 32.0886H62.5111Z" fill="white"/>
<path d="M73.7214 36.2495H72.2185V31.6482H73.7214C74.4651 31.6482 75.0645 31.8607 75.5195 32.2858C75.9789 32.7153 76.2086 33.2696 76.2086 33.9488C76.2086 34.6325 75.9789 35.1868 75.5195 35.6119C75.0645 36.0369 74.4651 36.2495 73.7214 36.2495ZM72.7041 32.0886V35.8091H73.6623C74.2923 35.8091 74.7933 35.6403 75.1652 35.3029C75.5327 34.9699 75.7164 34.5185 75.7164 33.9488C75.7164 33.3792 75.5327 32.9278 75.1652 32.5948C74.7933 32.2573 74.2923 32.0886 73.6623 32.0886H72.7041Z" fill="white"/>
<path d="M90.2573 36.2495H89.7782V31.6482H90.2573L91.9177 33.8765L93.578 31.6482H94.0506V36.2495H93.5715V32.3844L92.0686 34.3958H91.7733L90.2573 32.3844V36.2495Z" fill="white"/>
<path d="M100.754 36.2495H100.249L102.297 31.6219H102.749L104.804 36.2495H104.292L103.721 34.9808H101.312L100.754 36.2495ZM102.52 32.2332L101.476 34.5536H103.563L102.52 32.2332Z" fill="white"/>
<path d="M111.476 36.2495H111.004V31.6482H111.424L114.325 35.4081V31.6482H114.797V36.2495H114.384L111.476 32.4764V36.2495Z" fill="white"/>
<path d="M121.506 36.2495H121L123.048 31.6219H123.501L125.555 36.2495H125.043L124.472 34.9808H122.064L121.506 36.2495ZM123.271 32.2332L122.228 34.5536H124.315L123.271 32.2332Z" fill="white"/>
<path d="M133.581 36.3283C132.92 36.3283 132.362 36.1049 131.907 35.6579C131.461 35.2109 131.238 34.6412 131.238 33.9488C131.238 33.2608 131.461 32.6934 131.907 32.2464C132.358 31.795 132.92 31.5693 133.594 31.5693C134.176 31.5693 134.662 31.7161 135.051 32.0097V32.5027C134.627 32.1828 134.15 32.0229 133.62 32.0229C133.082 32.0229 132.632 32.2047 132.268 32.5685C131.91 32.9278 131.73 33.3901 131.73 33.9554C131.73 34.5119 131.907 34.9721 132.262 35.3358C132.621 35.6951 133.06 35.8748 133.581 35.8748C134.132 35.8748 134.568 35.7148 134.887 35.3949V33.607H135.366V35.5856C135.165 35.8134 134.907 35.9953 134.592 36.1311C134.281 36.2626 133.944 36.3283 133.581 36.3283Z" fill="white"/>
<path d="M145.158 36.2495H141.91V31.6482H145.06V32.0886H142.395V33.561H144.581V34.0014H142.395V35.8091H145.158V36.2495Z" fill="white"/>
<path d="M151.954 36.2495H151.468V31.6482H153.522C153.969 31.6482 154.321 31.7622 154.579 31.99C154.842 32.2135 154.973 32.5159 154.973 32.8971C154.973 33.2258 154.877 33.4997 154.684 33.7188C154.496 33.9379 154.231 34.0759 153.89 34.1329L155.373 36.2495H154.802L153.358 34.1789H151.954V36.2495ZM151.954 32.0886V33.7385H153.496C153.811 33.7385 154.054 33.6684 154.225 33.5282C154.4 33.3835 154.487 33.1798 154.487 32.9168C154.487 32.6539 154.4 32.4501 154.225 32.3055C154.05 32.1609 153.807 32.0886 153.496 32.0886H151.954Z" fill="white"/>
</svg>
