<svg display="none" xmlns="http://www.w3.org/2000/svg">
  <symbol id="home" viewBox="0 0 32 32" fill="none">
    <path d="M13.4417 23.8943V21.1342C13.4417 20.4322 14.014 19.8617 14.7231 19.857H17.3206C18.0331 19.857 18.6107 20.4288 18.6107 21.1342V21.1342V23.9028C18.6105 24.4989 19.091 24.986 19.6929 25H21.4246C23.1508 25 24.5502 23.6146 24.5502 21.9056V21.9056V14.0541C24.541 13.3817 24.2221 12.7504 23.6844 12.3397L17.7621 7.61677C16.7246 6.79441 15.2498 6.79441 14.2123 7.61677L8.31602 12.3483C7.77623 12.7573 7.45684 13.3897 7.4502 14.0626V21.9056C7.4502 23.6146 8.84958 25 10.5758 25H12.3075C12.9243 25 13.4244 24.5049 13.4244 23.8943V23.8943" stroke="currentcolor" stroke-width="1.25" stroke-linecap="round" stroke-linejoin="round"/>
  </symbol>
  <symbol id="openMail" viewBox="0 0 32 32" fill="none">
    <path d="M6.98438 12.1878V23.1348H25.0146V12.1878M6.98438 12.1878L15.9995 7.68018L25.0146 12.1878M6.98438 12.1878L15.9993 17.0816L25.0146 12.1878" stroke="currentcolor" stroke-width="1.25" stroke-linecap="round" stroke-linejoin="round"/>
  </symbol>
  <symbol id="history" viewBox="0 0 32 32" fill="none">
    <path d="M16.6482 12.464C16.6482 12.1189 16.3684 11.839 16.0232 11.839C15.6781 11.839 15.3982 12.1189 15.3982 12.464H16.6482ZM16.0232 16.3208H15.3982C15.3982 16.4865 15.4641 16.6455 15.5813 16.7627L16.0232 16.3208ZM18.1524 19.3338C18.3965 19.5779 18.7922 19.5779 19.0363 19.3338C19.2804 19.0898 19.2804 18.694 19.0363 18.45L18.1524 19.3338ZM8.93457 9.89293C8.93457 9.54775 8.65475 9.26793 8.30957 9.26793C7.96439 9.26793 7.68457 9.54775 7.68457 9.89293H8.93457ZM8.30957 13.7496H7.68457C7.68457 14.0948 7.96439 14.3746 8.30957 14.3746V13.7496ZM12.1663 14.3746C12.5115 14.3746 12.7913 14.0948 12.7913 13.7496C12.7913 13.4045 12.5115 13.1246 12.1663 13.1246V14.3746ZM8.65165 12.8247L8.36992 13.3826L9.48573 13.9461L9.76746 13.3882L8.65165 12.8247ZM10.4207 21.9228L9.97492 22.3609H9.97492L10.4207 21.9228ZM9.29968 19.1042C9.16831 18.7849 8.80305 18.6327 8.48385 18.764C8.16465 18.8954 8.01238 19.2607 8.14375 19.5799L9.29968 19.1042ZM15.3982 12.464V16.3208H16.6482V12.464H15.3982ZM15.5813 16.7627L18.1524 19.3338L19.0363 18.45L16.4652 15.8788L15.5813 16.7627ZM7.68457 9.89293V13.7496H8.93457V9.89293H7.68457ZM8.30957 14.3746H12.1663V13.1246H8.30957V14.3746ZM16.0231 24.8516C21.2351 24.8516 24.5544 20.573 24.5544 16.3203H23.3044C23.3044 19.974 20.4568 23.6016 16.0231 23.6016V24.8516ZM24.5544 16.3203C24.5544 12.0677 21.2351 7.78906 16.0231 7.78906V9.03906C20.4568 9.03906 23.3044 12.6667 23.3044 16.3203H24.5544ZM16.0231 7.78906C11.3852 7.78906 9.31765 11.5058 8.65165 12.8247L9.76746 13.3882C10.4194 12.0971 12.1762 9.03906 16.0231 9.03906V7.78906ZM16.0231 23.6016C13.8776 23.6016 12.119 22.7592 10.8664 21.4847L9.97492 22.3609C11.4531 23.8649 13.5291 24.8516 16.0231 24.8516V23.6016ZM10.8664 21.4847C10.1915 20.7979 9.66156 19.9835 9.29968 19.1042L8.14375 19.5799C8.56523 20.604 9.18342 21.5555 9.97492 22.3609L10.8664 21.4847Z" fill="currentcolor"/>
  </symbol>
  <symbol id="members" viewBox="0 0 32 32" fill="none">
    <path d="M19.8258 16.9999C19.8258 19.113 18.1128 20.826 15.9997 20.826C13.8866 20.826 12.1736 19.113 12.1736 16.9999M19.8258 16.9999C19.8258 14.8868 18.1128 13.1738 15.9997 13.1738C13.8866 13.1738 12.1736 14.8868 12.1736 16.9999M19.8258 16.9999L26.522 17M12.1736 16.9999L5.47852 17" stroke="currentcolor" stroke-width="1.25" stroke-linecap="round"/>
  </symbol>
  <symbol id="team" viewBox="0 0 32 32" fill="none">
    <path d="M12.9662 8.88549L12.9624 8.83129C12.9595 8.77679 12.958 8.72191 12.958 8.66668C12.958 6.9868 14.3198 5.625 15.9996 5.625C17.6795 5.625 19.0413 6.9868 19.0413 8.66668C19.0413 10.3466 17.6795 11.7084 15.9996 11.7084C14.7852 11.7084 13.737 10.9966 13.2494 9.96745L13.2289 9.92244C13.0838 9.60285 12.9924 9.25358 12.9662 8.88549ZM11.8946 9.9224C11.8946 9.92245 11.8947 9.92249 11.8947 9.92253C11.5248 10.1728 11.1791 10.456 10.8616 10.7678C11.1791 10.456 11.5249 10.1727 11.8946 9.9224ZM10.7683 10.8612C10.4562 11.1788 10.1729 11.5248 9.92253 11.8949C9.92249 11.8949 9.92245 11.8949 9.92241 11.8948C10.1729 11.5248 10.4562 11.1789 10.7683 10.8612ZM11.7083 16C11.7083 17.2305 10.9777 18.2903 9.92665 18.7693C9.92539 18.7698 9.92413 18.7704 9.92286 18.771C9.88292 18.7891 9.8425 18.8064 9.80165 18.8229C9.51566 18.938 9.208 19.0109 8.88593 19.0337L8.84806 19.0364C8.78804 19.0399 8.72755 19.0417 8.66664 19.0417C6.9868 19.0417 5.625 17.6799 5.625 16C5.625 14.3202 6.9868 12.9584 8.66664 12.9584C10.3465 12.9584 11.7083 14.3202 11.7083 16ZM11.8947 22.0772C11.1185 21.5517 10.4481 20.8813 9.92262 20.105C9.92266 20.105 9.9227 20.105 9.92274 20.105C10.4481 20.8814 11.1183 21.5516 11.8948 22.0771C11.8947 22.0771 11.8947 22.0772 11.8947 22.0772ZM12.9625 23.1673L12.9662 23.114C12.9924 22.746 13.0838 22.3967 13.2289 22.0771L13.2456 22.0405C13.7315 21.007 14.782 20.2915 15.9996 20.2915C17.6795 20.2915 19.0413 21.6533 19.0413 23.3332C19.0413 25.0131 17.6795 26.3749 15.9996 26.3749C14.3198 26.3749 12.958 25.0131 12.958 23.3332C12.958 23.2775 12.9595 23.2222 12.9625 23.1673ZM22.0776 20.105C21.552 20.8815 20.8815 21.552 20.105 22.0776C20.105 22.0775 20.105 22.0775 20.105 22.0774C20.8816 21.5519 21.552 20.8816 22.0775 20.105C22.0776 20.105 22.0776 20.105 22.0776 20.105ZM22.3783 18.8886C22.2754 18.8546 22.175 18.8153 22.0774 18.771C21.0243 18.2928 20.292 17.2319 20.292 16C20.292 14.3202 21.6538 12.9584 23.3336 12.9584C25.0135 12.9584 26.3753 14.3202 26.3753 16C26.3753 17.6799 25.0135 19.0417 23.3336 19.0417C23.2727 19.0417 23.2122 19.0399 23.1521 19.0364L23.1143 19.0337C22.8587 19.0156 22.6121 18.9659 22.3783 18.8886ZM20.105 9.92199C20.8816 10.4476 21.5522 11.1182 22.0779 11.8948C22.0778 11.8949 22.0778 11.8949 22.0777 11.8949C21.5522 11.1181 20.8817 10.4477 20.105 9.92211C20.105 9.92207 20.105 9.92203 20.105 9.92199Z" stroke="currentcolor" stroke-width="1.25"/>
  </symbol>
  <symbol id="settings" viewBox="0 0 32 32" fill="none">
    <path fill-rule="evenodd" clip-rule="evenodd" d="M24.3568 11.8462L23.7668 10.8224C23.2677 9.95612 22.1616 9.65727 21.2941 10.1543C20.8812 10.3976 20.3884 10.4666 19.9246 10.3462C19.4607 10.2257 19.0638 9.92571 18.8213 9.5123C18.6654 9.24952 18.5816 8.95023 18.5784 8.64468C18.5925 8.1548 18.4077 7.68009 18.066 7.32868C17.7244 6.97727 17.2551 6.7791 16.7651 6.7793H15.5764C15.0963 6.77929 14.6359 6.97061 14.2972 7.31093C13.9585 7.65125 13.7694 8.1125 13.7717 8.59262C13.7575 9.58391 12.9498 10.38 11.9584 10.3799C11.6528 10.3767 11.3535 10.2929 11.0908 10.137C10.2233 9.63992 9.11714 9.93877 8.61801 10.805L7.98464 11.8462C7.48611 12.7114 7.78089 13.8168 8.64404 14.3189C9.2051 14.6428 9.55072 15.2415 9.55072 15.8893C9.55072 16.5371 9.2051 17.1358 8.64404 17.4597C7.78199 17.9584 7.48689 19.0611 7.98464 19.9237L8.5833 20.9562C8.81717 21.3782 9.20955 21.6896 9.67363 21.8215C10.1377 21.9533 10.6352 21.8949 11.056 21.659C11.4698 21.4176 11.9628 21.3514 12.4255 21.4752C12.8882 21.5991 13.2823 21.9026 13.5201 22.3184C13.6761 22.5811 13.7599 22.8804 13.7631 23.186C13.7631 24.1874 14.5749 24.9993 15.5764 24.9993H16.7651C17.7632 24.9993 18.5736 24.1927 18.5784 23.1947C18.5761 22.713 18.7664 22.2504 19.107 21.9099C19.4475 21.5693 19.9101 21.379 20.3917 21.3813C20.6966 21.3895 20.9946 21.4729 21.2594 21.6243C22.1246 22.1228 23.23 21.828 23.7321 20.9649L24.3568 19.9237C24.5986 19.5087 24.665 19.0144 24.5412 18.5503C24.4175 18.0862 24.1138 17.6905 23.6974 17.451C23.2811 17.2115 22.9774 16.8159 22.8536 16.3517C22.7299 15.8876 22.7962 15.3933 23.038 14.9783C23.1953 14.7038 23.4229 14.4761 23.6974 14.3189C24.5554 13.8171 24.8495 12.7181 24.3568 11.8549V11.8462Z" stroke="currentcolor" stroke-width="1.25" stroke-linecap="round" stroke-linejoin="round"/>
    <path d="M18.6738 15.8896C18.6738 17.2696 17.5551 18.3884 16.175 18.3884C14.795 18.3884 13.6763 17.2696 13.6763 15.8896C13.6763 14.5096 14.795 13.3909 16.175 13.3909C17.5551 13.3909 18.6738 14.5096 18.6738 15.8896Z" stroke="currentcolor" stroke-width="1.25" stroke-linecap="round" stroke-linejoin="round"/>
  </symbol>

  <symbol id="logo" viewBox="0 0 93 36">
    <path d="M2.78294 28.54V8.1764H10.4193C11.9837 8.1764 13.2962 8.44818 14.3568 8.99174C15.424 9.5353 16.2294 10.2976 16.773 11.2787C17.3232 12.2531 17.5983 13.3899 17.5983 14.6892C17.5983 15.9951 17.3199 17.1286 16.7631 18.0898C16.2129 19.0443 15.4008 19.7834 14.327 20.3071C13.2531 20.8241 11.934 21.0827 10.3696 21.0827H4.93066V18.0202H9.87243C10.7872 18.0202 11.5363 17.8942 12.1196 17.6423C12.7029 17.3838 13.1338 17.0093 13.4122 16.5187C13.6972 16.0216 13.8398 15.4117 13.8398 14.6892C13.8398 13.9666 13.6972 13.3502 13.4122 12.8398C13.1272 12.3227 12.693 11.9316 12.1096 11.6665C11.5263 11.3947 10.7739 11.2588 9.85254 11.2588H6.47186V28.54H2.78294ZM13.3028 19.3128L18.344 28.54H14.2275L9.27583 19.3128H13.3028ZM27.3774 28.8383C25.8461 28.8383 24.5237 28.5202 23.4101 27.8838C22.3031 27.2408 21.4513 26.3327 20.8547 25.1594C20.2581 23.9794 19.9598 22.5907 19.9598 20.9932C19.9598 19.4221 20.2581 18.0434 20.8547 16.8568C21.4579 15.6636 22.2997 14.7356 23.3802 14.0727C24.4607 13.4032 25.7301 13.0684 27.1885 13.0684C28.1298 13.0684 29.018 13.2209 29.8532 13.5258C30.6951 13.8241 31.4375 14.2881 32.0805 14.9179C32.7301 15.5476 33.2406 16.3497 33.6118 17.3241C33.983 18.2919 34.1686 19.4453 34.1686 20.7844V21.8881H21.6501V19.4619H30.7183C30.7117 18.7725 30.5625 18.1594 30.2709 17.6224C29.9792 17.0789 29.5715 16.6513 29.0479 16.3398C28.5308 16.0282 27.9276 15.8724 27.2382 15.8724C26.5024 15.8724 25.8561 16.0514 25.2993 16.4094C24.7425 16.7607 24.3083 17.2247 23.9967 17.8014C23.6918 18.3715 23.536 18.9979 23.5294 19.6807V21.7986C23.5294 22.6868 23.6918 23.4491 24.0166 24.0855C24.3414 24.7152 24.7955 25.1991 25.3788 25.5372C25.9622 25.8686 26.6449 26.0344 27.4271 26.0344C27.9508 26.0344 28.4247 25.9614 28.849 25.8156C29.2732 25.6631 29.6411 25.4411 29.9527 25.1494C30.2642 24.8577 30.4996 24.4965 30.6586 24.0656L34.0194 24.4434C33.8073 25.3317 33.403 26.1073 32.8064 26.7702C32.2164 27.4264 31.4607 27.9368 30.5393 28.3014C29.6179 28.6594 28.564 28.8383 27.3774 28.8383ZM40.8131 19.5912V28.54H37.2137V13.2673H40.654V15.8625H40.833C41.1843 15.0074 41.7445 14.3279 42.5134 13.8241C43.289 13.3203 44.2468 13.0684 45.387 13.0684C46.441 13.0684 47.359 13.2938 48.1412 13.7446C48.9301 14.1953 49.5399 14.8483 49.9708 15.7034C50.4083 16.5585 50.6237 17.5959 50.6171 18.8156V28.54H47.0177V19.3724C47.0177 18.3516 46.7525 17.5528 46.2222 16.9761C45.6985 16.3994 44.9727 16.1111 44.0447 16.1111C43.4149 16.1111 42.8548 16.2503 42.3643 16.5287C41.8804 16.8005 41.4992 17.1949 41.2208 17.7119C40.949 18.229 40.8131 18.8554 40.8131 19.5912ZM61.0376 28.8383C59.5063 28.8383 58.1839 28.5202 57.0702 27.8838C55.9632 27.2408 55.1114 26.3327 54.5148 25.1594C53.9182 23.9794 53.6199 22.5907 53.6199 20.9932C53.6199 19.4221 53.9182 18.0434 54.5148 16.8568C55.118 15.6636 55.9599 14.7356 57.0404 14.0727C58.1209 13.4032 59.3903 13.0684 60.8486 13.0684C61.7899 13.0684 62.6782 13.2209 63.5134 13.5258C64.3553 13.8241 65.0977 14.2881 65.7407 14.9179C66.3903 15.5476 66.9007 16.3497 67.2719 17.3241C67.6431 18.2919 67.8287 19.4453 67.8287 20.7844V21.8881H55.3103V19.4619H64.3785C64.3718 18.7725 64.2227 18.1594 63.931 17.6224C63.6394 17.0789 63.2317 16.6513 62.708 16.3398C62.191 16.0282 61.5877 15.8724 60.8983 15.8724C60.1626 15.8724 59.5162 16.0514 58.9594 16.4094C58.4026 16.7607 57.9684 17.2247 57.6569 17.8014C57.3519 18.3715 57.1962 18.9979 57.1895 19.6807V21.7986C57.1895 22.6868 57.3519 23.4491 57.6768 24.0855C58.0016 24.7152 58.4556 25.1991 59.039 25.5372C59.6223 25.8686 60.3051 26.0344 61.0873 26.0344C61.6109 26.0344 62.0849 25.9614 62.5091 25.8156C62.9334 25.6631 63.3013 25.4411 63.6128 25.1494C63.9244 24.8577 64.1597 24.4965 64.3188 24.0656L67.6796 24.4434C67.4675 25.3317 67.0631 26.1073 66.4665 26.7702C65.8766 27.4264 65.1209 27.9368 64.1995 28.3014C63.2781 28.6594 62.2241 28.8383 61.0376 28.8383ZM73.4889 13.2673L76.5713 18.9051L79.7034 13.2673H83.5116L78.9079 20.9037L83.5912 28.54H79.8028L76.5713 23.0415L73.3696 28.54H69.5514L74.2048 20.9037L69.6707 13.2673H73.4889Z" fill="#8B81FC"/>
    <circle cx="89.7744" cy="24.54" r="3" fill="#DB504A"/>
  </symbol>

  <symbol id="social" viewBox="0 0 24 24" fill="none" >
    <path fill-rule="evenodd" clip-rule="evenodd" d="M10.2399 14.3477C12.9309 14.3477 15.2308 14.7554 15.2308 16.3843C15.2308 18.0132 12.9462 18.4326 10.2399 18.4326C7.54825 18.4326 5.24902 18.0285 5.24902 16.3989C5.24902 14.7693 7.53293 14.3477 10.2399 14.3477Z" fill="url(#paint0_linear_150_11304)" fill-opacity="0.5" stroke="currentcolor" stroke-linecap="round" stroke-linejoin="round"/>
    <path fill-rule="evenodd" clip-rule="evenodd" d="M10.2404 12.0224C8.47365 12.0224 7.04102 10.5904 7.04102 8.82369C7.04102 7.05693 8.47365 5.625 10.2404 5.625C12.0064 5.625 13.439 7.05693 13.439 8.82369C13.4456 10.5839 12.0232 12.0158 10.263 12.0224H10.2404Z" fill="url(#paint1_linear_150_11304)" fill-opacity="0.5" stroke="currentcolor" stroke-linecap="round" stroke-linejoin="round"/>
    <path d="M15.2666 11.1931C16.4344 11.029 17.3339 10.0267 17.336 8.8136C17.336 7.61802 16.4644 6.62595 15.3213 6.43848" stroke="currentcolor" stroke-linecap="round" stroke-linejoin="round"/>
    <path d="M16.8076 14.001C17.939 14.1695 18.729 14.5663 18.729 15.3833C18.729 15.9457 18.357 16.3105 17.7559 16.5388" stroke="currentcolor" stroke-linecap="round" stroke-linejoin="round"/>
    <defs>
      <linearGradient id="paint0_linear_150_11304" x1="10.2399" y1="14.3477" x2="10.2399" y2="18.4326" gradientUnits="userSpaceOnUse">
        <stop stop-color="white"/>
        <stop offset="1" stop-color="white" stop-opacity="0"/>
      </linearGradient>
      <linearGradient id="paint1_linear_150_11304" x1="10.24" y1="5.625" x2="10.24" y2="12.0224" gradientUnits="userSpaceOnUse">
        <stop stop-color="white"/>
        <stop offset="1" stop-color="white" stop-opacity="0"/>
      </linearGradient>
    </defs>
  </symbol>
  <symbol id="banking" viewBox="0 0 24 24" fill="none">
    <path d="M18.7682 13.6281H15.9344C14.8938 13.6275 14.0504 12.7848 14.0498 11.7442C14.0498 10.7037 14.8938 9.86099 15.9344 9.86035H18.7682" stroke="currentcolor" stroke-linecap="round" stroke-linejoin="round"/>
    <path d="M16.2552 11.7008H16.037" stroke="currentcolor" stroke-linecap="round" stroke-linejoin="round"/>
    <path fill-rule="evenodd" clip-rule="evenodd" d="M9.0445 5.65039H15.095C17.1237 5.65039 18.7684 7.29505 18.7684 9.32376V14.3477C18.7684 16.3764 17.1237 18.021 15.095 18.021H9.0445C7.01577 18.021 5.37109 16.3764 5.37109 14.3477V9.32376C5.37109 7.29505 7.01577 5.65039 9.0445 5.65039Z" fill="url(#paint0_linear_150_9287)" fill-opacity="0.5" stroke="currentcolor" stroke-linecap="round" stroke-linejoin="round"/>
    <path d="M8.5459 8.82777H12.3252" stroke="currentcolor" stroke-linecap="round" stroke-linejoin="round"/>
    <defs>
      <linearGradient id="paint0_linear_150_9287" x1="12.0697" y1="5.65039" x2="12.0697" y2="18.021" gradientUnits="userSpaceOnUse">
        <stop stop-color="white"/>
        <stop offset="1" stop-color="white" stop-opacity="0"/>
      </linearGradient>
    </defs>
  </symbol>
  <symbol id="eCommerce" viewBox="0 0 24 24" fill="none">
    <path fill-rule="evenodd" clip-rule="evenodd" d="M15.2634 18.6163H9.41997C7.27353 18.6163 5.62685 17.841 6.09459 14.7206L6.63921 10.4917C6.92753 8.93475 7.92066 8.33887 8.79205 8.33887H15.917C16.8012 8.33887 17.7366 8.9796 18.0698 10.4917L18.6144 14.7206C19.0117 17.4886 17.4099 18.6163 15.2634 18.6163Z" fill="url(#paint0_linear_150_9371)" fill-opacity="0.5" stroke="currentcolor" stroke-linecap="round" stroke-linejoin="round"/>
    <path d="M15.3591 8.18544C15.3591 6.51518 14.0051 5.16116 12.3349 5.16116V5.16116C11.5306 5.15775 10.7581 5.47488 10.1882 6.04241C9.61823 6.60994 9.29784 7.38113 9.29785 8.18544V8.18544" stroke="currentcolor" stroke-linecap="round" stroke-linejoin="round"/>
    <path d="M14.4106 11.3379H14.3786" stroke="currentcolor" stroke-linecap="round" stroke-linejoin="round"/>
    <path d="M10.3295 11.3379H10.2975" stroke="currentcolor" stroke-linecap="round" stroke-linejoin="round"/>
  </symbol>
  <symbol id="services" viewBox="0 0 24 24" fill="none">
    <path fill-rule="evenodd" clip-rule="evenodd" d="M15.6935 13.3284C16.1658 13.3284 16.5622 13.7182 16.49 14.1846C16.0663 16.9286 13.7173 18.9659 10.8841 18.9659C7.74961 18.9659 5.20898 16.4253 5.20898 13.2915C5.20898 10.7097 7.17045 8.30462 9.37877 7.76083C9.85329 7.64367 10.3396 7.97746 10.3396 8.46598C10.3396 11.7759 10.4509 12.6321 11.0794 13.0978C11.7079 13.5634 12.447 13.3284 15.6935 13.3284Z" fill="url(#paint0_linear_150_12841)" fill-opacity="0.5" stroke="currentcolor" stroke-linecap="round" stroke-linejoin="round"/>
    <path fill-rule="evenodd" clip-rule="evenodd" d="M18.7831 10.5723C18.8207 8.44575 16.2086 5.01798 13.0254 5.07692C12.7779 5.08134 12.5797 5.28766 12.5686 5.5345C12.4883 7.28302 12.5966 9.5488 12.657 10.576C12.6754 10.8957 12.9267 11.147 13.2458 11.1654C14.3017 11.2258 16.65 11.3084 18.3734 11.0475C18.6078 11.0122 18.7794 10.8088 18.7831 10.5723Z" stroke="currentcolor" stroke-linecap="round" stroke-linejoin="round"/>
  </symbol>
  <symbol id="education" viewBox="0 0 24 24" fill="none">
    <path d="M8.77539 13.9109L10.8706 11.1878L13.2605 13.0651L15.3108 10.4189" stroke="currentcolor" stroke-width="1.04999" stroke-linecap="round" stroke-linejoin="round"/>
    <circle cx="17.5" cy="6.5" r="1.73145" stroke="currentcolor" stroke-width="1.04999" stroke-linecap="round" stroke-linejoin="round"/>
    <path fill-rule="evenodd" clip-rule="evenodd" d="M14.9226 5.74805H9.06351C6.95552 5.74805 5.64844 7.24093 5.64844 9.34891V15.0065C5.64844 17.1145 6.92989 18.6009 9.06351 18.6009H15.0863C17.1943 18.6009 18.5014 17.1145 18.5014 15.0065V8.99679" fill="url(#paint0_linear_150_11011)" fill-opacity="0.5"/>
    <path d="M14.9226 5.74805H9.06351C6.95552 5.74805 5.64844 7.24093 5.64844 9.34891V15.0065C5.64844 17.1145 6.92989 18.6009 9.06351 18.6009H15.0863C17.1943 18.6009 18.5014 17.1145 18.5014 15.0065V8.99679" stroke="currentcolor" stroke-linecap="round" stroke-linejoin="round"/>
  </symbol>
  <symbol id="otherPassCategory" viewBox="0 0 24 24" fill="none">
    <path fill-rule="evenodd" clip-rule="evenodd" d="M15.0342 5.52539H8.96589C6.85119 5.52539 5.52539 7.02269 5.52539 9.14159V14.8592C5.52539 16.9781 6.84489 18.4754 8.96589 18.4754H15.0335C17.1552 18.4754 18.4754 16.9781 18.4754 14.8592V9.14159C18.4754 7.02269 17.1552 5.52539 15.0342 5.52539Z" fill="url(#paint0_linear_150_9921)" fill-opacity="0.5" stroke="currentcolor" stroke-linecap="round" stroke-linejoin="round"/>
    <path fill-rule="evenodd" clip-rule="evenodd" d="M11.0821 12.0005C11.0821 12.7166 10.5018 13.2969 9.78566 13.2969C9.06956 13.2969 8.48926 12.7166 8.48926 12.0005C8.48926 11.2844 9.06956 10.7041 9.78566 10.7041H9.78776C10.5025 10.7048 11.0821 11.2851 11.0821 12.0005Z" stroke="currentcolor" stroke-linecap="round" stroke-linejoin="round"/>
    <path d="M11.084 12H15.5066V13.2964" stroke="currentcolor" stroke-linecap="round" stroke-linejoin="round"/>
    <path d="M13.5277 13.2964V12" stroke="currentcolor" stroke-linecap="round" stroke-linejoin="round"/>
    <defs>
      <linearGradient id="paint0_linear_150_9921" x1="12.0004" y1="5.52539" x2="12.0004" y2="18.4754" gradientUnits="userSpaceOnUse">
        <stop stop-color="white"/>
        <stop offset="1" stop-color="white" stop-opacity="0"/>
      </linearGradient>
    </defs>
  </symbol>

  <symbol id="image" viewBox="0 0 74 74" fill="none">
    <path d="M21 43.2476L28.4667 35.7809L37.8836 45.8687M53 45.6856L45.5334 38.219L37.8836 45.8687M44.473 52.9999L37.8836 45.8687M22.219 52.9999H51.781C52.4542 52.9999 53 52.4541 53 51.7809V24.5047C53 23.8314 52.4542 23.2856 51.781 23.2856H22.219C21.5458 23.2856 21 23.8314 21 24.5047V51.7809C21 52.4541 21.5458 52.9999 22.219 52.9999Z" stroke="currentcolor" stroke-linecap="round" stroke-linejoin="round"/>
  </symbol>
  <symbol id="shield" viewBox="0 0 26 26">
    <path d="M13 19.877C13 19.877 18.5 17.127 18.5 13.002V8.18945L13 6.12695L7.5 8.18945V13.002C7.5 17.127 13 19.877 13 19.877Z" fill="url(#paint0_linear_226_669)" fill-opacity="0.5" stroke="#272829" stroke-linecap="round" stroke-linejoin="round"/>
    <defs>
      <linearGradient id="paint0_linear_226_669" x1="13" y1="6.12695" x2="13" y2="19.877" gradientUnits="userSpaceOnUse">
        <stop stop-color="#272829"/>
        <stop offset="1" stop-color="#272829" stop-opacity="0"/>
      </linearGradient>
    </defs>
  </symbol>
  <symbol id="lock" viewBox="0 0 32 32" fill="none">
    <path fill-rule="evenodd" clip-rule="evenodd" d="M12.6247 12.1815C12.6247 11.0064 12.9497 10.122 13.4935 9.53653C14.031 8.9577 14.8516 8.59619 16.0015 8.59619C17.152 8.59619 17.9715 8.95697 18.5079 9.53455C19.0504 10.1188 19.3747 11.0021 19.3747 12.1778V14.0415H12.6247V12.1815ZM11.3747 14.0415V12.1815C11.3747 10.7829 11.7637 9.56216 12.5775 8.6859C13.3975 7.80299 14.5778 7.34619 16.0015 7.34619C17.425 7.34619 18.6046 7.80173 19.4238 8.68397C20.2369 9.55952 20.6247 10.7795 20.6247 12.1778V14.0415H21.9997C22.713 14.0415 23.2913 14.6198 23.2913 15.3332V23.3332C23.2913 24.0465 22.713 24.6248 21.9997 24.6248H9.99967C9.28631 24.6248 8.70801 24.0465 8.70801 23.3332V15.3332C8.70801 14.6198 9.28631 14.0415 9.99967 14.0415H11.3747ZM9.95801 15.3332C9.95801 15.3102 9.97666 15.2915 9.99967 15.2915H21.9997C22.0227 15.2915 22.0413 15.3102 22.0413 15.3332V23.3332C22.0413 23.3562 22.0227 23.3748 21.9997 23.3748H9.99967C9.97666 23.3748 9.95801 23.3562 9.95801 23.3332V15.3332Z" fill="currentcolor"/>
  </symbol>
  <symbol id="upload" viewBox="0 0 24 24" fill="none">
    <path d="M7.88118 9.70957H7.09704C5.38674 9.70957 4 11.0963 4 12.8066L4 16.9038C4 18.6133 5.38674 20 7.09704 20H16.4512C18.1615 20 19.5483 18.6133 19.5483 16.9038V12.7982C19.5483 11.0929 18.1657 9.70957 16.4605 9.70957H15.6679M11.774 4V14.1198M11.774 4L9.32406 6.46108M11.774 4L14.2247 6.46108" stroke="currentcolor" stroke-width="1.25" stroke-linecap="round" stroke-linejoin="round"/>
  </symbol>
  <symbol id="info-circle" viewBox="0 0 32 32" fill="none">
    <path d="M16 25C20.9706 25 25 20.9706 25 16C25 11.0294 20.9706 7 16 7C11.0294 7 7 11.0294 7 16C7 20.9706 11.0294 25 16 25Z" stroke="#888C8F" stroke-width="1.25" stroke-linecap="round" stroke-linejoin="round"/>
    <path d="M16 20V16" stroke="#888C8F" stroke-width="1.25" stroke-linecap="round" stroke-linejoin="round"/>
    <path d="M16 12H16.01" stroke="#888C8F" stroke-width="1.25" stroke-linecap="round" stroke-linejoin="round"/>
  </symbol>
  <symbol id="copy" viewBox="0 0 32 32" fill="none">
    <path d="M22.917 12.3867H14.3003C13.2428 12.3867 12.3855 13.244 12.3855 14.3016V22.9185C12.3855 23.9761 13.2428 24.8334 14.3003 24.8334H22.917C23.9745 24.8334 24.8318 23.9761 24.8318 22.9185V14.3016C24.8318 13.244 23.9745 12.3867 22.917 12.3867Z" stroke="currentcolor" stroke-width="1.25" stroke-linecap="round" stroke-linejoin="round"/>
    <path d="M9.70547 19.2802H8.74807C8.24023 19.2802 7.75319 19.0784 7.39409 18.7193C7.03499 18.3602 6.83325 17.8732 6.83325 17.3653V8.74837C6.83325 8.24051 7.03499 7.75346 7.39409 7.39435C7.75319 7.03524 8.24023 6.8335 8.74807 6.8335H17.3647C17.8726 6.8335 18.3596 7.03524 18.7187 7.39435C19.0778 7.75346 19.2795 8.24051 19.2795 8.74837V9.70581" stroke="currentcolor" stroke-width="1.25" stroke-linecap="round" stroke-linejoin="round"/>
  </symbol>
  <symbol id="refresh" viewBox="0 0 32 32" fill="none">
    <path d="M9.63916 10.251C9.63916 9.90585 9.35934 9.62603 9.01416 9.62603C8.66898 9.62603 8.38916 9.90585 8.38916 10.251H9.63916ZM9.01416 13.7008H8.38916C8.38916 14.0459 8.66898 14.3258 9.01416 14.3258V13.7008ZM12.4639 14.3258C12.8091 14.3258 13.0889 14.0459 13.0889 13.7008C13.0889 13.3556 12.8091 13.0758 12.4639 13.0758V14.3258ZM9.26126 12.8437L8.97954 13.4016L10.0954 13.965L10.3771 13.4071L9.26126 12.8437ZM10.9025 21.0114L10.4567 21.4495H10.4567L10.9025 21.0114ZM9.96078 18.4651C9.82941 18.1459 9.46415 17.9936 9.14495 18.125C8.82574 18.2564 8.67347 18.6216 8.80484 18.9408L9.96078 18.4651ZM8.38916 10.251V13.7008H9.63916V10.251H8.38916ZM9.01416 14.3258H12.4639V13.0758H9.01416V14.3258ZM15.9137 23.6971C20.6167 23.6971 23.6107 19.8356 23.6107 16.0002H22.3607C22.3607 19.2366 19.8385 22.4471 15.9137 22.4471V23.6971ZM23.6107 16.0002C23.6107 12.1647 20.6167 8.30322 15.9137 8.30322V9.55322C19.8385 9.55322 22.3607 12.7637 22.3607 16.0002H23.6107ZM15.9137 8.30322C11.7234 8.30322 9.85773 11.6625 9.26126 12.8437L10.3771 13.4071C10.9595 12.2538 12.5145 9.55322 15.9137 9.55322V8.30322ZM15.9137 22.4471C14.013 22.4471 12.4567 21.7012 11.3482 20.5733L10.4567 21.4495C11.7908 22.8069 13.6645 23.6971 15.9137 23.6971V22.4471ZM11.3482 20.5733C10.7506 19.9652 10.2813 19.244 9.96078 18.4651L8.80484 18.9408C9.185 19.8645 9.74261 20.7229 10.4567 21.4495L11.3482 20.5733Z" fill="currentcolor"/>
  </symbol>

  <symbol id="chevron-down" viewBox="0 0 32 32" fill="none">
    <path d="M15.6464 17.6464L12.8536 14.8536C12.5386 14.5386 12.7617 14 13.2071 14H18.7929C19.2383 14 19.4614 14.5386 19.1464 14.8536L16.3536 17.6464C16.1583 17.8417 15.8417 17.8417 15.6464 17.6464Z" fill="currentcolor"/>
  </symbol>
  <symbol id="cross-dark" viewBox="0 0 36 36" fill="none">
    <rect rx="18" fill="#313233"/>
    <path fill-rule="evenodd" clip-rule="evenodd" d="M24.4419 12.4419C24.686 12.1979 24.686 11.8021 24.4419 11.5581C24.1979 11.314 23.8021 11.314 23.5581 11.5581L18 17.1161L12.4419 11.5581C12.1979 11.314 11.8021 11.314 11.5581 11.5581C11.314 11.8021 11.314 12.1979 11.5581 12.4419L17.1161 18L11.5581 23.5581C11.314 23.8021 11.314 24.1979 11.5581 24.4419C11.8021 24.686 12.1979 24.686 12.4419 24.4419L18 18.8839L23.5581 24.4419C23.8021 24.686 24.1979 24.686 24.4419 24.4419C24.686 24.1979 24.686 23.8021 24.4419 23.5581L18.8839 18L24.4419 12.4419Z" fill="#F2F2F2"/>
  </symbol>
  <symbol id="chevron-left" viewBox="0 0 36 36" fill="none">
    <path fill-rule="evenodd" clip-rule="evenodd" d="M19.5581 11.5581C19.8021 11.314 20.1979 11.314 20.4419 11.5581C20.686 11.8021 20.686 12.1979 20.4419 12.4419L14.8839 18L20.4419 23.5581C20.686 23.8021 20.686 24.1979 20.4419 24.4419C20.1979 24.686 19.8021 24.686 19.5581 24.4419L13.5585 18.4424C13.5584 18.4423 13.5582 18.4421 13.5581 18.4419C13.5275 18.4114 13.5009 18.3786 13.478 18.3439C13.3178 18.1013 13.3445 17.7716 13.5581 17.5581L19.5581 11.5581Z" fill="currentcolor"/>
  </symbol>
  <symbol id="check" viewBox="0 0 24 24" fill="none">
    <path fill-rule="evenodd" clip-rule="evenodd" d="M18.4404 7.4339C18.6427 7.6218 18.6544 7.93817 18.4665 8.14052L10.6665 16.5405C10.48 16.7414 10.1666 16.7546 9.96381 16.5703L5.56381 12.5703C5.35948 12.3845 5.34443 12.0683 5.53018 11.864C5.71593 11.6596 6.03216 11.6446 6.23649 11.8303L10.2704 15.4975L17.7338 7.46007C17.9217 7.25771 18.238 7.246 18.4404 7.4339Z" fill="currentcolor"/>
  </symbol>
  <symbol id="edit" viewBox="0 0 32 32" fill="none">
    <path d="M15.9307 11.4052L20.1135 14.6175M17.2803 9.71277C17.8754 9.0016 18.945 8.89731 19.671 9.48027C19.7111 9.5119 21.0007 10.5137 21.0007 10.5137C21.7982 10.9958 22.0459 12.0207 21.553 12.8028C21.5268 12.8447 14.2361 21.9643 14.2361 21.9643C13.9936 22.2669 13.6254 22.4455 13.2319 22.4498L10.4398 22.4848L9.81074 19.8222C9.72262 19.4478 9.81074 19.0546 10.0533 18.752L17.2803 9.71277Z" stroke="currentcolor" stroke-width="1.11111" stroke-linecap="round" stroke-linejoin="round"/>
  </symbol>
  <symbol id="plus" viewBox="0 0 25 24" fill="none">
    <path d="M6.5 12H18.5M12.5 6L12.5 18" stroke="currentcolor" stroke-width="1.25" stroke-linecap="round"/>
  </symbol>
</svg>
