<svg width="32" height="32" viewBox="0 0 32 32" fill="none" xmlns="http://www.w3.org/2000/svg">
<path d="M22.917 12.3867H14.3003C13.2428 12.3867 12.3855 13.244 12.3855 14.3016V22.9185C12.3855 23.9761 13.2428 24.8334 14.3003 24.8334H22.917C23.9745 24.8334 24.8318 23.9761 24.8318 22.9185V14.3016C24.8318 13.244 23.9745 12.3867 22.917 12.3867Z" stroke="#888C8F" stroke-width="1.25" stroke-linecap="round" stroke-linejoin="round"/>
<path d="M9.70547 19.2802H8.74807C8.24023 19.2802 7.75319 19.0784 7.39409 18.7193C7.03499 18.3602 6.83325 17.8732 6.83325 17.3653V8.74837C6.83325 8.24051 7.03499 7.75346 7.39409 7.39435C7.75319 7.03524 8.24023 6.8335 8.74807 6.8335H17.3647C17.8726 6.8335 18.3596 7.03524 18.7187 7.39435C19.0778 7.75346 19.2795 8.24051 19.2795 8.74837V9.70581" stroke="#888C8F" stroke-width="1.25" stroke-linecap="round" stroke-linejoin="round"/>
</svg>
