<svg width="36" height="36" viewBox="0 0 36 36" fill="none" xmlns="http://www.w3.org/2000/svg">
<rect width="36" height="36" rx="18" fill="#313233"/>
<path fill-rule="evenodd" clip-rule="evenodd" d="M24.4419 12.4419C24.686 12.1979 24.686 11.8021 24.4419 11.5581C24.1979 11.314 23.8021 11.314 23.5581 11.5581L18 17.1161L12.4419 11.5581C12.1979 11.314 11.8021 11.314 11.5581 11.5581C11.314 11.8021 11.314 12.1979 11.5581 12.4419L17.1161 18L11.5581 23.5581C11.314 23.8021 11.314 24.1979 11.5581 24.4419C11.8021 24.686 12.1979 24.686 12.4419 24.4419L18 18.8839L23.5581 24.4419C23.8021 24.686 24.1979 24.686 24.4419 24.4419C24.686 24.1979 24.686 23.8021 24.4419 23.5581L18.8839 18L24.4419 12.4419Z" fill="#F2F2F2"/>
</svg>
