<svg width="24" height="24" viewBox="0 0 24 24" fill="none" xmlns="http://www.w3.org/2000/svg">
<path fill-rule="evenodd" clip-rule="evenodd" d="M15.2634 18.6163H9.41997C7.27353 18.6163 5.62685 17.841 6.09459 14.7206L6.63921 10.4917C6.92753 8.93475 7.92066 8.33887 8.79205 8.33887H15.917C16.8012 8.33887 17.7366 8.9796 18.0698 10.4917L18.6144 14.7206C19.0117 17.4886 17.4099 18.6163 15.2634 18.6163Z" fill="url(#paint0_linear_150_9371)" fill-opacity="0.5" stroke="#F2F2F2" stroke-linecap="round" stroke-linejoin="round"/>
<path d="M15.3591 8.18544C15.3591 6.51518 14.0051 5.16116 12.3349 5.16116V5.16116C11.5306 5.15775 10.7581 5.47488 10.1882 6.04241C9.61823 6.60994 9.29784 7.38113 9.29785 8.18544V8.18544" stroke="#F2F2F2" stroke-linecap="round" stroke-linejoin="round"/>
<path d="M14.4106 11.3379H14.3786" stroke="#F2F2F2" stroke-linecap="round" stroke-linejoin="round"/>
<path d="M10.3295 11.3379H10.2975" stroke="#F2F2F2" stroke-linecap="round" stroke-linejoin="round"/>
<defs>
<linearGradient id="paint0_linear_150_9371" x1="12.3449" y1="8.33887" x2="12.3449" y2="18.6163" gradientUnits="userSpaceOnUse">
<stop stop-color="white"/>
<stop offset="1" stop-color="white" stop-opacity="0"/>
</linearGradient>
</defs>
</svg>
