<svg width="32" height="32" viewBox="0 0 32 32" fill="none" xmlns="http://www.w3.org/2000/svg">
<path d="M13.4417 23.8943V21.1342C13.4417 20.4322 14.014 19.8617 14.7231 19.857H17.3206C18.0331 19.857 18.6107 20.4288 18.6107 21.1342V21.1342V23.9028C18.6105 24.4989 19.091 24.986 19.6929 25H21.4246C23.1508 25 24.5502 23.6146 24.5502 21.9056V21.9056V14.0541C24.541 13.3817 24.2221 12.7504 23.6844 12.3397L17.7621 7.61677C16.7246 6.79441 15.2498 6.79441 14.2123 7.61677L8.31602 12.3483C7.77623 12.7573 7.45684 13.3897 7.4502 14.0626V21.9056C7.4502 23.6146 8.84958 25 10.5758 25H12.3075C12.9243 25 13.4244 24.5049 13.4244 23.8943V23.8943" stroke="#F2F2F2" stroke-width="1.25" stroke-linecap="round" stroke-linejoin="round"/>
</svg>
