<svg width="32" height="32" viewBox="0 0 32 32" fill="none" xmlns="http://www.w3.org/2000/svg">
<path fill-rule="evenodd" clip-rule="evenodd" d="M12.6247 12.1815C12.6247 11.0064 12.9497 10.122 13.4935 9.53653C14.031 8.9577 14.8516 8.59619 16.0015 8.59619C17.152 8.59619 17.9715 8.95697 18.5079 9.53455C19.0504 10.1188 19.3747 11.0021 19.3747 12.1778V14.0415H12.6247V12.1815ZM11.3747 14.0415V12.1815C11.3747 10.7829 11.7637 9.56216 12.5775 8.6859C13.3975 7.80299 14.5778 7.34619 16.0015 7.34619C17.425 7.34619 18.6046 7.80173 19.4238 8.68397C20.2369 9.55952 20.6247 10.7795 20.6247 12.1778V14.0415H21.9997C22.713 14.0415 23.2913 14.6198 23.2913 15.3332V23.3332C23.2913 24.0465 22.713 24.6248 21.9997 24.6248H9.99967C9.28631 24.6248 8.70801 24.0465 8.70801 23.3332V15.3332C8.70801 14.6198 9.28631 14.0415 9.99967 14.0415H11.3747ZM9.95801 15.3332C9.95801 15.3102 9.97666 15.2915 9.99967 15.2915H21.9997C22.0227 15.2915 22.0413 15.3102 22.0413 15.3332V23.3332C22.0413 23.3562 22.0227 23.3748 21.9997 23.3748H9.99967C9.97666 23.3748 9.95801 23.3562 9.95801 23.3332V15.3332Z" fill="#F2F2F2"/>
</svg>
