<svg width="32" height="32" viewBox="0 0 32 32" fill="none" xmlns="http://www.w3.org/2000/svg">
<path d="M9.63916 10.251C9.63916 9.90585 9.35934 9.62603 9.01416 9.62603C8.66898 9.62603 8.38916 9.90585 8.38916 10.251H9.63916ZM9.01416 13.7008H8.38916C8.38916 14.0459 8.66898 14.3258 9.01416 14.3258V13.7008ZM12.4639 14.3258C12.8091 14.3258 13.0889 14.0459 13.0889 13.7008C13.0889 13.3556 12.8091 13.0758 12.4639 13.0758V14.3258ZM9.26126 12.8437L8.97954 13.4016L10.0954 13.965L10.3771 13.4071L9.26126 12.8437ZM10.9025 21.0114L10.4567 21.4495H10.4567L10.9025 21.0114ZM9.96078 18.4651C9.82941 18.1459 9.46415 17.9936 9.14495 18.125C8.82574 18.2564 8.67347 18.6216 8.80484 18.9408L9.96078 18.4651ZM8.38916 10.251V13.7008H9.63916V10.251H8.38916ZM9.01416 14.3258H12.4639V13.0758H9.01416V14.3258ZM15.9137 23.6971C20.6167 23.6971 23.6107 19.8356 23.6107 16.0002H22.3607C22.3607 19.2366 19.8385 22.4471 15.9137 22.4471V23.6971ZM23.6107 16.0002C23.6107 12.1647 20.6167 8.30322 15.9137 8.30322V9.55322C19.8385 9.55322 22.3607 12.7637 22.3607 16.0002H23.6107ZM15.9137 8.30322C11.7234 8.30322 9.85773 11.6625 9.26126 12.8437L10.3771 13.4071C10.9595 12.2538 12.5145 9.55322 15.9137 9.55322V8.30322ZM15.9137 22.4471C14.013 22.4471 12.4567 21.7012 11.3482 20.5733L10.4567 21.4495C11.7908 22.8069 13.6645 23.6971 15.9137 23.6971V22.4471ZM11.3482 20.5733C10.7506 19.9652 10.2813 19.244 9.96078 18.4651L8.80484 18.9408C9.185 19.8645 9.74261 20.7229 10.4567 21.4495L11.3482 20.5733Z" fill="#F2F2F2"/>
</svg>
