<svg width="24" height="24" viewBox="0 0 24 24" fill="none" xmlns="http://www.w3.org/2000/svg">
<path fill-rule="evenodd" clip-rule="evenodd" d="M15.6935 13.3284C16.1658 13.3284 16.5622 13.7182 16.49 14.1846C16.0663 16.9286 13.7173 18.9659 10.8841 18.9659C7.74961 18.9659 5.20898 16.4253 5.20898 13.2915C5.20898 10.7097 7.17045 8.30462 9.37877 7.76083C9.85329 7.64367 10.3396 7.97746 10.3396 8.46598C10.3396 11.7759 10.4509 12.6321 11.0794 13.0978C11.7079 13.5634 12.447 13.3284 15.6935 13.3284Z" fill="url(#paint0_linear_150_12841)" fill-opacity="0.5" stroke="#F2F2F2" stroke-linecap="round" stroke-linejoin="round"/>
<path fill-rule="evenodd" clip-rule="evenodd" d="M18.7831 10.5723C18.8207 8.44575 16.2086 5.01798 13.0254 5.07692C12.7779 5.08134 12.5797 5.28766 12.5686 5.5345C12.4883 7.28302 12.5966 9.5488 12.657 10.576C12.6754 10.8957 12.9267 11.147 13.2458 11.1654C14.3017 11.2258 16.65 11.3084 18.3734 11.0475C18.6078 11.0122 18.7794 10.8088 18.7831 10.5723Z" stroke="#F2F2F2" stroke-linecap="round" stroke-linejoin="round"/>
<defs>
<linearGradient id="paint0_linear_150_12841" x1="10.8538" y1="7.7373" x2="10.8538" y2="18.9659" gradientUnits="userSpaceOnUse">
<stop stop-color="white"/>
<stop offset="1" stop-color="white" stop-opacity="0"/>
</linearGradient>
</defs>
</svg>
