<svg width="24" height="24" viewBox="0 0 24 24" fill="none" xmlns="http://www.w3.org/2000/svg">
<path fill-rule="evenodd" clip-rule="evenodd" d="M10.2399 14.3477C12.9309 14.3477 15.2308 14.7554 15.2308 16.3843C15.2308 18.0132 12.9462 18.4326 10.2399 18.4326C7.54825 18.4326 5.24902 18.0285 5.24902 16.3989C5.24902 14.7693 7.53293 14.3477 10.2399 14.3477Z" fill="url(#paint0_linear_150_11304)" fill-opacity="0.5" stroke="#F2F2F2" stroke-linecap="round" stroke-linejoin="round"/>
<path fill-rule="evenodd" clip-rule="evenodd" d="M10.2404 12.0224C8.47365 12.0224 7.04102 10.5904 7.04102 8.82369C7.04102 7.05693 8.47365 5.625 10.2404 5.625C12.0064 5.625 13.439 7.05693 13.439 8.82369C13.4456 10.5839 12.0232 12.0158 10.263 12.0224H10.2404Z" fill="url(#paint1_linear_150_11304)" fill-opacity="0.5" stroke="#F2F2F2" stroke-linecap="round" stroke-linejoin="round"/>
<path d="M15.2666 11.1931C16.4344 11.029 17.3339 10.0267 17.336 8.8136C17.336 7.61802 16.4644 6.62595 15.3213 6.43848" stroke="#F2F2F2" stroke-linecap="round" stroke-linejoin="round"/>
<path d="M16.8076 14.001C17.939 14.1695 18.729 14.5663 18.729 15.3833C18.729 15.9457 18.357 16.3105 17.7559 16.5388" stroke="#F2F2F2" stroke-linecap="round" stroke-linejoin="round"/>
<defs>
<linearGradient id="paint0_linear_150_11304" x1="10.2399" y1="14.3477" x2="10.2399" y2="18.4326" gradientUnits="userSpaceOnUse">
<stop stop-color="white"/>
<stop offset="1" stop-color="white" stop-opacity="0"/>
</linearGradient>
<linearGradient id="paint1_linear_150_11304" x1="10.24" y1="5.625" x2="10.24" y2="12.0224" gradientUnits="userSpaceOnUse">
<stop stop-color="white"/>
<stop offset="1" stop-color="white" stop-opacity="0"/>
</linearGradient>
</defs>
</svg>
